<?xml version="1.0" standalone="no"?>
<!DOCTYPE svg PUBLIC "-//W3C//DTD SVG 20010904//EN"
 "http://www.w3.org/TR/2001/REC-SVG-20010904/DTD/svg10.dtd">
<svg version="1.0" xmlns="http://www.w3.org/2000/svg"
 width="512.000000pt" height="512.000000pt" viewBox="0 0 512.000000 512.000000"
 preserveAspectRatio="xMidYMid meet">
<metadata>
Created by potrace 1.14, written by Peter Selinger 2001-2017
</metadata>
<g transform="translate(0.000000,512.000000) scale(0.100000,-0.100000)"
fill="#000000" stroke="none">
<path d="M2211 4719 c-118 -25 -183 -104 -205 -249 -2 -14 -8 -24 -12 -24 -5
1 -31 5 -59 8 -27 4 -57 9 -65 11 -8 2 -33 6 -55 10 -22 3 -65 10 -95 15 -30
5 -68 12 -85 15 -16 2 -41 7 -55 10 -108 22 -283 48 -319 47 -110 -3 -206 -96
-225 -217 -4 -22 -13 -76 -21 -120 -8 -44 -17 -93 -19 -109 -3 -16 -7 -30 -8
-32 -2 -2 -60 -4 -129 -5 -96 -1 -140 -6 -184 -21 -126 -42 -221 -141 -258
-268 -15 -50 -17 -206 -17 -1613 0 -1170 3 -1569 12 -1605 15 -60 94 -142 154
-160 32 -9 464 -12 1873 -12 1630 0 1837 2 1879 16 56 18 90 46 129 105 l28
44 3 397 3 398 55 0 c71 0 115 19 150 66 l29 37 3 444 c3 493 4 488 -64 539
-38 29 -49 32 -121 33 l-53 1 0 373 c0 428 -2 445 -71 515 -39 38 -111 72
-156 72 -10 0 -13 43 -13 213 0 261 -7 295 -79 359 -58 53 -104 68 -201 68
l-72 0 9 53 c21 136 0 214 -78 280 -47 41 -67 47 -301 88 -64 11 -127 22 -140
24 -21 5 -149 27 -223 40 -16 3 -52 10 -80 15 -45 9 -83 16 -285 51 -30 5 -71
12 -90 15 -19 3 -41 7 -49 10 -8 2 -30 7 -50 10 -20 2 -56 9 -81 14 -25 5 -61
11 -80 14 -19 4 -46 8 -60 11 -14 3 -47 8 -75 11 -27 4 -52 7 -55 9 -3 1 -20
-2 -39 -6z"/>
</g>
</svg>
